<svg width="24" height="24" viewBox="0 0 512 512" xmlns="http://www.w3.org/2000/svg">
  <style>
    .blue { fill: #4658f5 !important; }
  </style>
  <path d="m130,117 h94.5 c-30,-40 -6.5,-87.3 40.5,-87.3 c47,0 70.5,47.3 40.5,87.3 h94.5 v94.5 c-40,-30 -87.3,-6.5 -87.3,40.5 c0,47 47.3,70.5 87.3,40.5 v121.5 h-94.5 c30,-40 6.5,-87.3 -40.5,-87.3 c-47,0 -70.5,47.3 -40.5,87.3 h-94.5 v-121.5 c-40,30 -87.3,6.5 -87.3,-40.5 c0,-47 47.3,-70.5 87.3,-40.5z" class="blue"/>
  <path d="m121 9v99h-99v18h99v69.8c-18.4-8.52-37.7-8.56-53.5-1.05-20 9.5-33.8 30.7-33.8 57.3s13.8 47.8 33.8 57.3c15.8 7.51 35.1 7.47 53.5-1.05v96.8h-99v18h99v72h18v-72h85.5l7.2-14.4c-13.3-17.7-14.2-35.7-7.7-49.4 6.5-13.7 20.5-23.5 41-23.5s34.5 9.84 41 23.5c6.5 13.7 5.61 31.6-7.7 49.4l7.2 14.4h85.5v72h18v-72h99v-18h-99v-112l-14.4-7.2c-17.7 13.3-35.7 14.2-49.4 7.7-13.7-6.5-23.5-20.5-23.5-41s9.84-34.5 23.5-41c13.7-6.5 31.6-5.61 49.4 7.7l14.4-7.2v-85.5h99v-18h-99v-99h-18v99h-69.8c8.52-18.4 8.56-37.7 1.05-53.5-9.5-20-30.7-33.8-57.3-33.8s-47.8 13.8-57.3 33.8c-7.51 15.8-7.47 35.1 1.05 53.5h-69.8v-99zm144 29.7c20.5 0 34.5 9.84 41 23.5s5.61 31.6-7.7 49.4l7.2 14.4h85.5v69.8c-18.4-8.52-37.7-8.56-53.5-1.05-20 9.5-33.8 30.7-33.8 57.3s13.8 47.8 33.8 57.3c15.8 7.51 35.1 7.47 53.5-1.05v96.8h-69.8c8.52-18.4 8.56-37.7 1.05-53.5-9.5-20-30.7-33.8-57.3-33.8s-47.8 13.8-57.3 33.8c-7.51 15.8-7.47 35.1 1.05 53.5h-69.8v-112l-14.4-7.2c-17.7 13.3-35.7 14.2-49.4 7.7s-23.5-20.5-23.5-41 9.84-34.5 23.5-41 31.6-5.61 49.4 7.7l14.4-7.2v-85.5h85.5l7.2-14.4c-13.3-17.7-14.2-35.7-7.7-49.4s20.5-23.5 41-23.5z"/>
</svg>
