<svg cursor="default" version="1.0" viewBox="0 0 48 48" xmlns="http://www.w3.org/2000/svg" xmlns:xlink="http://www.w3.org/1999/xlink">
  <style>
    .blue { fill: #4658f5 !important; }
    .white { fill: #ffffff !important; }
    .black { fill: #000000 !important; }
  </style>
  <path d="m2.6909.19079c-.68159 0-1.2645.28699-1.6502.81612-.3677.49326-.5381 1.3004-.5381 2.538 0 1.13.14349 1.9192.44842 2.4035.37667.60985.99548.94167 1.7399.94167.69056 0 1.2556-.27802 1.6502-.80715.35873-.49326.5381-1.3094.5381-2.5022 0-1.1659-.14349-1.9551-.44842-2.4483-.37667-.60984-.99548-.94167-1.7399-.94167zm0 1.0134c.32286 0 .58294.17937.7354.51119.12556.26905.1973.95961.1973 1.8385 0 .71746-.062778 1.417-.16143 1.6771-.14349.37667-.41254.58294-.77127.58294-.33183 0-.58294-.1704-.7354-.49326-.12556-.26905-.1973-.9327-.1973-1.7847 0-.75334.062778-1.4708.16143-1.7309.13452-.38564.41254-.60088.77127-.60088zm4.6725 1.0941v4.3855h1.2556v-6.3585h-.83405c-.1973.75334-.85199 1.139-1.9461 1.139v.83405zm4.9864 0v4.3855h1.2556v-6.3585h-.83405c-.1973.75334-.85199 1.139-1.9461 1.139v.83405zm4.9864 0v4.3855h1.2556v-6.3585h-.83405c-.1973.75334-.85199 1.139-1.9461 1.139v.83405zm5.3003-2.1076c-.68159 0-1.2645.28699-1.6502.81612-.3677.49326-.5381 1.3004-.5381 2.538 0 1.13.14349 1.9192.44842 2.4035.37667.60985.99548.94167 1.7399.94167.69056 0 1.2556-.27802 1.6502-.80715.35873-.49326.5381-1.3094.5381-2.5022 0-1.1659-.14349-1.9551-.44842-2.4483-.37667-.60984-.99548-.94167-1.7399-.94167zm0 1.0134c.32286 0 .58294.17937.7354.51119.12556.26905.1973.95961.1973 1.8385 0 .71746-.06278 1.417-.16143 1.6771-.14349.37667-.41254.58294-.77127.58294-.33183 0-.58294-.1704-.7354-.49326-.12556-.26905-.1973-.9327-.1973-1.7847 0-.75334.06278-1.4708.16143-1.7309.13452-.38564.41254-.60088.77128-.60088z" opacity=".5"/>
  <path d="m2.377 11.319v4.3855h1.2556v-6.3585h-.83405c-.1973.75334-.85199 1.139-1.9461 1.139v.83405zm5.3003-2.1076c-.68159 0-1.2645.28699-1.6502.81612-.3677.49326-.5381 1.3004-.5381 2.538 0 1.13.14349 1.9192.44842 2.4035.37667.60984.99548.94167 1.7399.94167.69056 0 1.2556-.27802 1.6502-.80715.35873-.49326.5381-1.3094.5381-2.5022 0-1.1659-.14349-1.9551-.44842-2.4483-.37667-.60984-.99548-.94167-1.7399-.94167zm0 1.0134c.32286 0 .58294.17937.7354.51119.12556.26905.1973.95961.1973 1.8385 0 .71746-.062778 1.417-.16143 1.6771-.14349.37667-.41254.58294-.77127.58294-.33183 0-.58294-.1704-.7354-.49326-.12556-.26905-.1973-.9327-.1973-1.7847 0-.75334.062778-1.4708.16143-1.7309.13452-.38564.41254-.60088.77127-.60088zm4.9864-1.0134c-.68159 0-1.2645.28699-1.6502.81612-.3677.49326-.5381 1.3004-.5381 2.538 0 1.13.14349 1.9192.44842 2.4035.37667.60984.99548.94167 1.7399.94167.69056 0 1.2556-.27802 1.6502-.80715.35873-.49326.5381-1.3094.5381-2.5022 0-1.1659-.14349-1.9551-.44842-2.4483-.37667-.60984-.99548-.94167-1.7399-.94167zm0 1.0134c.32286 0 .58294.17937.7354.51119.12556.26905.1973.95961.1973 1.8385 0 .71746-.06278 1.417-.16143 1.6771-.14349.37667-.41254.58294-.77128.58294-.33183 0-.58294-.1704-.7354-.49326-.12556-.26905-.1973-.9327-.1973-1.7847 0-.75334.06278-1.4708.16143-1.7309.13452-.38564.41254-.60088.77128-.60088zm4.6725 1.0941v4.3855h1.2556v-6.3585h-.83405c-.1973.75334-.85199 1.139-1.9461 1.139v.83405zm4.9864 0v4.3855h1.2556v-6.3585h-.83405c-.1973.75334-.85199 1.139-1.9461 1.139v.83405z"/>
  <path d="m2.6909 18.233c-.68159 0-1.2645.28699-1.6502.81612-.3677.49326-.5381 1.3004-.5381 2.538 0 1.13.14349 1.9192.44842 2.4035.37667.60984.99548.94167 1.7399.94167.69056 0 1.2556-.27802 1.6502-.80715.35873-.49326.5381-1.3094.5381-2.5022 0-1.1659-.14349-1.9551-.44842-2.4483-.37667-.60984-.99548-.94167-1.7399-.94167zm0 1.0134c.32286 0 .58294.17937.7354.51119.12556.26905.1973.95961.1973 1.8385 0 .71746-.062778 1.417-.16143 1.6771-.14349.37667-.41254.58294-.77127.58294-.33183 0-.58294-.1704-.7354-.49326-.12556-.26905-.1973-.9327-.1973-1.7847 0-.75334.062778-1.4708.16143-1.7309.13452-.38564.41254-.60088.77127-.60088zm4.9864-1.0134c-.68159 0-1.2645.28699-1.6502.81612-.3677.49326-.5381 1.3004-.5381 2.538 0 1.13.14349 1.9192.44842 2.4035.37667.60984.99548.94167 1.7399.94167.69056 0 1.2556-.27802 1.6502-.80715.35873-.49326.5381-1.3094.5381-2.5022 0-1.1659-.14349-1.9551-.44842-2.4483-.37667-.60984-.99548-.94167-1.7399-.94167zm0 1.0134c.32286 0 .58294.17937.7354.51119.12556.26905.1973.95961.1973 1.8385 0 .71746-.062778 1.417-.16143 1.6771-.14349.37667-.41254.58294-.77127.58294-.33183 0-.58294-.1704-.7354-.49326-.12556-.26905-.1973-.9327-.1973-1.7847 0-.75334.062778-1.4708.16143-1.7309.13452-.38564.41254-.60088.77127-.60088zm4.6725 1.0941v4.3855h1.2556v-6.3585h-.83405c-.1973.75334-.85199 1.139-1.9461 1.139v.83405zm4.9864 0v4.3855h1.2556v-6.3585h-.83405c-.1973.75334-.85199 1.139-1.9461 1.139v.83405zm4.9864 0v4.3855h1.2556v-6.3585h-.83405c-.1973.75334-.85199 1.139-1.9461 1.139v.83405z" opacity=".5"/>
  <path d="m36 12-24 26c-.27.29-.26.74.026 1 .29.27.74.26 1-.026l24-26c.27-.29.26-.74-.026-1-.28-.26-.73-.27-1 .026z"/>
  <g transform="matrix(.023438 0 0 .023438 23.333 22.866)">
    <path d="m407.84 27.68c244.16-58.56 512.8 101.28 578.88 343.04 77.6 240-62.56 521.12-300 604.64-225.12 90.88-504.16-16-612.8-232.32-114.08-206.56-51.36-488 139.84-626.4 57.12-43.52 124-73.6 194.08-88.96" class="black"/>
    <path d="m113.76 275.84c83.04-143.36 248.32-234.56 414.08-226.24 112.96 4.16 212 108.8 208.32 222.24 2.56 83.36-48.32 162.56-121.44 200.48-60.48 34.24-134.72 13.76-196.96 42.88-119.36 43.84-190.72 187.52-150.72 308.8 12.16 45.44 40.64 83.52 68.8 120.16-96.16-47.36-183.68-118.08-232.96-215.04-75.36-139.36-71.36-317.6 10.88-453.28m368.32-99.52c-75.84 19.36-95.04 131.52-30.72 175.52 56 46.4 152.32 8.32 159.52-64.48 14.08-70.4-61.28-134.88-128.8-111.04M483.2 689.92c48.8-24.16 110.24 24.32 94.72 77.44-8.16 50.56-79.84 70.4-113.76 32.8-33.6-30.56-22.56-92.32 19.04-110.24" class="white"/>
    <path d="m688.96 80.32c96.64 47.84 184.48 119.04 233.28 217.12 74.72 139.68 69.44 317.6-13.28 452.8-85.92 146.56-258.24 237.44-427.84 223.2-68-6.08-127.84-51.84-162.4-109.12-56.8-91.2-31.2-219.52 53.12-284.96 46.72-42.88 111.2-50.72 171.84-53.92 120-8.8 219.2-116.96 224.32-236.16 7.2-78.08-29.76-151.04-79.04-208.96m-219.84 580.8c-70.08 29.28-76.48 138.4-10.56 175.84 62.4 43.04 158.72-8.96 153.28-85.6 3.68-71.04-80.32-122.24-142.72-90.24M483.36 210.08c48.48-24 109.76 24 94.56 76.8-7.68 50.56-78.72 70.72-113.12 33.92-34.24-30.4-23.52-92.96 18.56-110.72" class="blue"/>
  </g>
</svg>
